<?xml version="1.0" encoding="utf-8" standalone="no"?>
<!-- Generator: Adobe Illustrator 26.2.1, SVG Export Plug-In . SVG Version: 6.00 Build 0)  --><svg xmlns="http://www.w3.org/2000/svg" xmlns:xlink="http://www.w3.org/1999/xlink" id="Layer_1" style="enable-background:new 0 0 171 65;" version="1.1" viewBox="0 0 171 65" x="0px" xml:space="preserve" y="0px">
<style type="text/css">
	.st0{fill:#192E44;}
	.st1{fill:#82C341;}
</style>
<path class="st0" d="M56.7,33.7c-1.7,0-2.9,1.3-3.2,3.2h6C59.6,34.9,58.5,33.7,56.7,33.7 M63.5,39.7h-10c0,3,1.5,4.5,4.5,4.5  c1.6,0,3.3-0.4,4.7-1l0.4,3.2c-1.7,0.7-3.8,1-5.8,1c-5.1,0-8-2.6-8-8.3c0-4.9,2.7-8.6,7.6-8.6c4.7,0,6.8,3.2,6.8,7.2  C63.7,38.4,63.6,39,63.5,39.7"/>
<path class="st0" d="M75.1,44.5v2.6h-9.6v-2.6c0.8-0.2,1.9-0.3,2.8-0.4V26.6c-0.8-0.1-1.9-0.3-2.8-0.3v-2.6c2.1-0.3,4.6-0.4,7-0.3  v20.8C73.4,44.2,74.3,44.4,75.1,44.5"/>
<path class="st0" d="M84,33.7c-1.7,0-2.9,1.3-3.2,3.2h6C86.8,34.9,85.7,33.7,84,33.7 M90.8,39.7h-10c0,3,1.5,4.5,4.5,4.5  c1.6,0,3.3-0.4,4.7-1l0.4,3.2c-1.7,0.7-3.8,1-5.8,1c-5.1,0-8-2.6-8-8.3c0-4.9,2.7-8.6,7.6-8.6c4.7,0,6.8,3.2,6.8,7.2  C90.9,38.4,90.9,39,90.8,39.7"/>
<path class="st0" d="M115.3,36.9c0-1.7-0.4-2.8-1.9-2.8c-1.8,0-3.7,2.1-3.7,5.3v4.7c0.8,0.1,1.7,0.2,2.4,0.4v2.7h-6.5V36.9  c0-1.6-0.3-2.8-1.9-2.8c-1.9,0-3.7,2.3-3.7,5.3v4.7c0.8,0.1,1.7,0.2,2.4,0.4v2.7H93v-2.6c0.8-0.2,1.9-0.3,2.8-0.4v-10  C95,34,93.9,33.9,93,33.8v-2.6c2-0.3,4.6-0.4,6.7-0.3c0,0.7-0.1,2-0.2,2.9h0c1-2,2.9-3.3,5.3-3.3c2.9,0,4.1,1.7,4.5,3.3  c0.7-1.6,2.5-3.3,5.3-3.3c3.1,0,4.9,1.7,4.9,5.4v8.1c0.9,0.1,1.9,0.2,2.6,0.4v2.6h-6.8V36.9z"/>
<path class="st0" d="M131.3,33.7c-1.7,0-2.9,1.3-3.2,3.2h6C134.1,34.9,133,33.7,131.3,33.7 M138.1,39.7h-10c0,3,1.5,4.5,4.5,4.5  c1.6,0,3.3-0.4,4.7-1l0.4,3.2c-1.7,0.7-3.8,1-5.8,1c-5.1,0-8-2.6-8-8.3c0-4.9,2.7-8.6,7.6-8.6c4.7,0,6.8,3.2,6.8,7.2  C138.2,38.4,138.2,39,138.1,39.7"/>
<path class="st0" d="M153,36.8c0-1.7-0.5-2.7-2-2.7c-2.1,0-3.8,2.4-3.8,5.2v4.8c0.8,0.1,1.7,0.2,2.4,0.4v2.7h-9.3v-2.6  c0.8-0.2,1.9-0.3,2.8-0.4v-10c-0.8-0.1-1.9-0.3-2.8-0.3v-2.6c2-0.3,4.6-0.4,6.7-0.3c0,0.7-0.1,2.1-0.2,2.9l0,0  c1-1.9,2.9-3.3,5.5-3.3c3.6,0,4.8,2.3,4.8,5.2v8.3c0.9,0.1,1.9,0.2,2.7,0.4v2.6H153V36.8z"/>
<path class="st0" d="M167.6,47.5c-3.6,0-4.7-1.3-4.7-5.1v-8.2h-2.8V31h2.8v-5l4.2-1.1V31h3.9v3.2h-3.9v7.1c0,2.1,0.5,2.7,1.9,2.7  c0.7,0,1.4-0.1,2-0.3v3.4C170,47.3,168.8,47.5,167.6,47.5"/>
<path class="st1" d="M14.2,21.1c-4.9,0-8.9-4-8.9-8.9c0-4.9,4-8.9,8.9-8.9c4.9,0,8.9,4,8.9,8.9C23,17.1,19.1,21.1,14.2,21.1 M21,0.5  H7.2L0.3,12.4l6.9,11.9H21l6.9-11.9L21,0.5z"/>
<path class="st1" d="M37.5,34.2c-4.9,0-8.9-4-8.9-8.9c0-4.9,4-8.9,8.9-8.9s8.9,4,8.9,8.9C46.4,30.2,42.4,34.2,37.5,34.2 M44.3,13.6  H30.5l-6.9,11.9l6.9,11.9h13.8l6.9-11.9L44.3,13.6z"/>
<path class="st1" d="M13.8,47.9c-4.9,0-8.9-4-8.9-8.9c0-4.9,4-8.9,8.9-8.9c4.9,0,8.9,4,8.9,8.9C22.7,43.9,18.7,47.9,13.8,47.9   M20.6,27.2H6.8l-6.9,11.9l6.9,11.9h13.8l6.9-11.9L20.6,27.2z"/>
<path class="st1" d="M37.2,60.8c-4.9,0-8.9-4-8.9-8.9c0-4.9,4-8.9,8.9-8.9c4.9,0,8.9,4,8.9,8.9C46.1,56.8,42.1,60.8,37.2,60.8   M44.1,40.2H30.3l-6.9,11.9l6.9,11.9h13.8l6.9-11.9L44.1,40.2z"/>
</svg>
